<svg width="256" height="99" viewBox="0 0 256 99" fill="none" xmlns="http://www.w3.org/2000/svg">
<g clip-path="url(#clip0_8080_292096)">
<path d="M188.001 59.408C188.092 54.0153 187.456 48.5999 188.509 43.2376C190.19 34.6563 194.757 28.2714 202.755 24.4769C206.3 22.7955 210.034 21.9169 213.919 21.2731C217.759 20.6369 221.592 20.5233 225.379 20.8641C233.824 21.6215 241.844 23.621 247.896 30.2634C251.6 34.323 253.607 39.1022 254.402 44.4645C255.697 53.22 255.205 62.0437 254.864 70.7992C254.546 79.0472 251.539 86.4318 244.503 91.567C240.936 94.1724 236.944 95.7251 232.619 96.7021C227.764 97.8003 222.879 98.5198 217.956 97.9972C210.276 97.1793 202.77 95.6948 196.673 90.3173C191.137 85.4321 188.546 79.1835 188.054 72.0413C187.766 67.8529 188.001 63.6191 188.001 59.408ZM233.581 59.3852C233.559 59.3852 233.536 59.3852 233.513 59.3852C233.513 55.674 233.642 51.9628 233.475 48.2591C233.331 45.0402 231.695 42.4877 228.779 41.1017C224.568 39.0946 220.084 39.034 215.684 40.3443C211.95 41.4577 209.504 44.0556 209.284 48.0395C208.852 55.7573 208.67 63.4979 209.398 71.2082C209.723 74.6998 211.98 76.9341 215.343 78.1686C218.305 79.2593 221.304 79.0472 224.296 78.8276C229.756 78.4337 233.657 74.677 233.596 69.2011C233.551 65.9216 233.581 62.6496 233.581 59.3852Z" fill="white"/>
<path d="M0.787637 61.8561C0.787637 52.7976 0.863377 43.7392 0.757342 34.6807C0.681602 28.0838 3.51426 27.0461 7.91474 25.2738C12.2849 23.5167 16.8672 22.4033 21.4797 21.6989C27.7055 20.7446 34.0298 20.2371 40.3086 20.9188C45.83 21.5171 51.2605 22.8426 55.7973 26.2887C60.9628 30.2121 63.803 35.582 64.9088 41.929C65.492 45.2918 65.6359 48.6698 65.6283 52.0705C65.5981 64.9008 65.6132 77.7387 65.6132 90.569C65.6132 92.5609 65.3936 94.4241 63.2577 95.4466C62.576 95.7723 61.9323 95.795 61.2582 95.8026C57.0925 95.8253 52.9268 95.7799 48.7687 95.8253C46.5571 95.848 44.5424 94.4923 44.5046 92.1292C44.4894 91.1294 44.3455 90.1221 44.3455 89.1224C44.3304 76.6708 44.3379 64.2116 44.3304 51.76C44.3304 49.8135 44.3076 47.8518 43.679 45.981C42.3536 42.0653 39.1422 40.6338 35.431 40.187C31.5304 39.7174 27.6298 40.0734 23.7822 40.9216C22.4113 41.2246 22.2447 42.0502 22.2447 43.262C22.275 58.6068 22.2674 73.9593 22.2674 89.3117C22.2674 90.0691 22.2901 90.8265 22.2371 91.5763C22.0478 94.356 20.6011 95.7874 17.8442 95.8177C13.8073 95.8632 9.76279 95.7496 5.73344 95.8632C2.71142 95.9541 0.810359 94 0.810359 90.9401C0.787637 81.2303 0.787637 71.5432 0.787637 61.8561Z" fill="white"/>
<path d="M114.936 58.8564C115.049 53.9409 114.603 48.5255 115.617 43.1556C117.382 33.7941 122.411 27.1366 131.477 23.6148C138.339 20.9487 145.474 20.2065 152.662 20.9109C160.781 21.6985 168.264 24.304 173.952 30.651C176.573 33.5745 178.55 36.8692 179.534 40.6259C180.352 43.7842 179.413 45.2232 175.634 46.685C172.316 47.9726 168.847 48.8436 165.447 49.9115C162.493 50.8355 160.948 50.2145 159.645 47.4197C158.547 45.0566 157.38 42.8374 155.207 41.1485C151.745 38.4521 143.581 38.49 140.278 40.7319C138.188 42.1558 136.908 44.0266 136.522 46.5184C136.272 48.1392 136.158 49.76 136.166 51.4036C136.188 57.2507 136.082 63.1053 136.211 68.9524C136.317 73.6786 136.984 77.5262 143.543 79.1849C148.079 80.3361 152.616 79.9195 156.365 76.5491C157.471 75.5494 158.266 74.3072 158.85 72.9515C161.235 67.4225 162.796 68.2329 166.969 69.2099C169.764 69.8613 172.399 71.164 175.187 71.8911C180.875 73.3832 180.716 76.5188 178.792 80.6466C175.421 87.8722 169.817 92.9164 162.303 95.6128C159.728 96.5368 156.956 97.0215 154.199 97.4835C150.814 98.0516 147.443 98.3394 144.096 98.0137C137.923 97.4078 131.841 96.408 126.418 92.9392C121.116 89.546 117.935 84.7517 116.284 78.844C114.497 72.4365 114.996 65.8623 114.936 58.8564Z" fill="white"/>
<path d="M103.604 48.4054C103.604 62.3718 103.612 76.3382 103.597 90.297C103.597 92.5237 103.082 94.5308 100.711 95.5382C100.03 95.826 99.363 95.7957 98.6965 95.7957C94.9095 95.826 91.1225 95.826 87.3431 95.8108C83.6091 95.7881 82.1549 94.3566 82.1473 90.5999C82.1322 70.3472 82.1398 50.0868 82.1246 29.834C82.1246 29.0615 82.5563 27.9481 81.8141 27.5921C80.9885 27.1983 80.3902 28.2586 79.7161 28.7358C78.2619 29.7583 76.8077 30.7732 75.3308 31.7578C73.1494 33.2196 71.2711 32.7727 70.0668 30.4702C68.1961 26.8802 65.7421 23.7446 62.7731 20.9952C60.6599 19.0335 60.7584 17.0416 63.1594 15.4586C69.7866 11.096 76.4063 6.72585 83.1547 2.54502C85.1618 1.30289 87.487 0.545496 90.0167 0.674254C92.5994 0.803011 95.1897 0.757568 97.7725 0.689402C102.044 0.583367 103.574 2.64349 103.589 6.50621C103.642 20.4726 103.604 34.439 103.604 48.4054Z" fill="white"/>
</g>
<defs>
<clipPath id="clip0_8080_292096">
<rect width="256" height="98.4615" fill="white"/>
</clipPath>
</defs>
</svg>
